<svg xmlns="http://www.w3.org/2000/svg" xmlns:xlink="http://www.w3.org/1999/xlink" id="Layer_1" x="0px" y="0px" viewBox="0 0 1415.1 365.7" style="enable-background:new 0 0 1415.1 365.7;" xml:space="preserve"><style type="text/css">	.st0{fill:#FFFFFF;}</style><g>	<g>		<path class="st0" d="M471,251.9c-12.4-6.4-22.1-15.4-29-27c-6.9-11.6-10.3-25.1-10.3-40.3c0-15.1,3.4-28.4,10.3-40   c6.9-11.6,16.6-20.6,29.1-26.9c12.5-6.4,26.9-9.6,43.2-9.6c24.8,0,45.4,8.1,62,24.4l-6.9,6.9c-15.1-14.8-33.1-22.2-54.1-22.2   c-14.4,0-27,2.8-37.9,8.4c-10.9,5.6-19.3,13.5-25.3,23.6c-6,10.2-9,21.9-9,35.2c0,13.5,3,25.3,8.9,35.6   c5.9,10.3,14.3,18.3,25,23.9c10.8,5.7,23.1,8.5,37.1,8.5c12.6,0,24.1-2.4,34.2-7.2c10.2-4.8,18.5-11.3,24.9-19.5l7.5,6.9   c-7.5,9-17,16.1-28.4,21.2c-11.4,5.1-24.1,7.7-38,7.7C497.9,261.5,483.5,258.3,471,251.9z"></path>		<path class="st0" d="M672,156.7c7,3.4,12.4,8.3,16.2,14.5c3.8,6.3,5.8,13.4,5.8,21.5v66.8h-9.7l-0.2-23.6v-2.6   c-4,8.8-10.4,15.6-19,20.7c-8.6,5-18.2,7.6-28.9,7.6c-11.3,0-20.5-2.8-27.4-8.3c-7-5.5-10.5-12.8-10.5-21.8c0-6.3,2-11.8,6-16.6   c4-4.7,9.5-8.4,16.7-11c7.1-2.6,15.4-3.9,24.8-3.9c12.8,0,25.6,1.4,38.4,4.2v-9.9c0-10.5-3.5-18.9-10.5-25.1   c-7-6.3-16.3-9.4-27.9-9.4c-14.5,0-26.2,4.4-34.9,13.1l-4.8-6.5c10.2-10,24.1-14.9,41.6-14.9C656.8,151.5,665,153.2,672,156.7z    M660.2,248.7c6.9-3.4,12.6-8.3,17.2-14.7c4.5-6.4,6.8-13.9,6.8-22.5c-12.4-2.8-24.8-4.2-37.1-4.2c-11.4,0-20.7,2.2-27.7,6.6   c-7,4.4-10.5,10.1-10.5,17.3c0,6.9,2.8,12.4,8.3,16.5c5.5,4.2,12.8,6.3,21.8,6.3C646.1,253.9,653.2,252.2,660.2,248.7z"></path>		<path class="st0" d="M740.9,258.8c-6.8-1.8-12.2-4.5-16.2-8l4.6-6.5c8.2,5.9,19.6,8.9,34.1,8.9c9.7,0,17.5-1.9,23.3-5.7   c5.9-3.8,8.8-8.7,8.8-14.9c0-9.7-9-16.9-26.8-21.6l-13.9-3.6c-10-2.6-17.5-5.8-22.7-9.8c-5.2-4-7.8-9.6-7.8-16.9   c0-8.7,3.6-15.8,10.9-21.2c7.3-5.4,16.8-8.1,28.7-8.1c7.5,0,14.4,0.7,20.6,2.2c6.2,1.5,12.1,3.8,17.8,6.9l-4.4,7.1   c-9.4-5.2-20.5-7.9-33.1-7.9c-8.9,0-16.1,1.8-21.6,5.3c-5.5,3.6-8.3,8.3-8.3,14.2c0,5.1,2,9.2,6.2,12.2c4.1,3,10.1,5.5,17.9,7.4   l14.1,3.6c10,2.7,18,6.3,24.1,10.9c6.1,4.6,9.2,10.7,9.2,18.4c0,8.9-3.8,16-11.5,21.5c-7.7,5.4-18,8.2-31.1,8.2   C755.3,261.5,747.7,260.6,740.9,258.8z"></path>		<path class="st0" d="M917.9,157.4c7.5,3.9,13.2,9.4,17.4,16.5c4.1,7.1,6.2,15.4,6.2,24.8v60.8h-9.9V201c0-8.1-1.8-15.2-5.2-21.4   c-3.5-6.2-8.4-11-14.8-14.3c-6.4-3.4-13.8-5-22.1-5c-12.6,0-22.8,3.7-30.5,11.2c-7.7,7.5-11.5,17.3-11.5,29.6v58.5h-10.1V102.1   h10.1v75.1c3.6-8.2,9.2-14.5,16.7-19c7.5-4.4,16.9-6.7,28.2-6.7C901.9,151.5,910.4,153.5,917.9,157.4z"></path>		<path class="st0" d="M977.8,259.5V102.1h21.4v157.4H977.8z"></path>		<path class="st0" d="M1142.9,213.1H1050c1.2,9.8,4.9,17.5,11.1,23c6.2,5.5,14.5,8.3,24.8,8.3c7.3,0,13.9-1.3,20-3.9   c6.1-2.6,11.2-6.4,15.5-11.2l16.6,8.7c-5.7,7.4-13,13.2-22,17.4c-9,4.2-18.9,6.3-29.7,6.3c-11.7,0-22-2.3-31-7   c-8.9-4.6-15.9-11.1-20.8-19.5c-4.9-8.3-7.4-18-7.4-29.1c0-11.2,2.4-21,7.3-29.6c4.8-8.5,11.6-15.2,20.4-19.9   c8.7-4.7,18.9-7.1,30.5-7.1c11.6,0,21.7,2.3,30.5,6.9c8.7,4.6,15.5,11,20.4,19.2c4.8,8.2,7.3,17.7,7.3,28.5   C1143.5,207.6,1143.3,210.7,1142.9,213.1z M1061,175.2c-6.1,5.7-9.8,13.5-11,23.6h70.8c-1.1-10.1-4.7-18-10.9-23.6   c-6.2-5.7-14.4-8.5-24.6-8.5C1075.2,166.7,1067.1,169.5,1061,175.2z"></path>		<path class="st0" d="M1182.1,258.5c-7.5-2-13.6-5-18.5-9.1l8.5-13.3c9.1,5.7,20.7,8.5,34.5,8.5c7.5,0,13.6-1.3,18.1-3.8   c4.5-2.6,6.8-6,6.8-10.3c0-3.9-2-7.1-6.1-9.6c-4-2.5-9.8-4.6-17.4-6.4l-11.9-3c-10.8-2.6-18.9-6-24.4-10.2   c-5.5-4.2-8.3-10.3-8.3-18.1c0-6.6,1.8-12.4,5.6-17.6c3.7-5.1,8.9-9.1,15.5-11.9s14.4-4.2,23.1-4.2c16.7,0,30.9,3.4,42.6,10.3   l-9.1,14.3c-9.6-5-20.3-7.5-32.1-7.5c-7,0-12.7,1.2-17.1,3.6c-4.4,2.4-6.6,5.7-6.6,9.7c0,3.6,1.8,6.5,5.3,8.7   c3.6,2.2,8.8,4.1,15.6,5.9l11.7,2.8c10.9,2.7,19.5,6.5,25.9,11.4c6.4,4.9,9.6,11.6,9.6,20.1c0,6.5-2,12.2-5.9,17.2   c-3.9,5-9.4,8.8-16.5,11.5c-7.1,2.7-15.3,4-24.7,4C1197.8,261.5,1189.6,260.5,1182.1,258.5z"></path>		<path class="st0" d="M1292.7,258.5c-7.5-2-13.6-5-18.5-9.1l8.5-13.3c9.1,5.7,20.7,8.5,34.5,8.5c7.5,0,13.6-1.3,18.1-3.8   c4.5-2.6,6.8-6,6.8-10.3c0-3.9-2-7.1-6.1-9.6c-4-2.5-9.8-4.6-17.4-6.4l-11.9-3c-10.8-2.6-18.9-6-24.4-10.2   c-5.5-4.2-8.3-10.3-8.3-18.1c0-6.6,1.8-12.4,5.6-17.6c3.7-5.1,8.9-9.1,15.5-11.9s14.4-4.2,23.1-4.2c16.7,0,30.9,3.4,42.6,10.3   l-9.1,14.3c-9.6-5-20.3-7.5-32.1-7.5c-7,0-12.7,1.2-17.1,3.6c-4.4,2.4-6.6,5.7-6.6,9.7c0,3.6,1.8,6.5,5.3,8.7   c3.6,2.2,8.8,4.1,15.6,5.9l11.7,2.8c10.9,2.7,19.5,6.5,25.9,11.4c6.4,4.9,9.6,11.6,9.6,20.1c0,6.5-2,12.2-5.9,17.2   c-3.9,5-9.4,8.8-16.5,11.5c-7.1,2.7-15.3,4-24.7,4C1308.4,261.5,1300.2,260.5,1292.7,258.5z"></path>	</g>	<g>		<path class="st0" d="M384.8,148.8c-13.8,19.8-29.9,36.5-55.3,40.3c-18.1,2.7-35-2.6-49.8-12c-23.7-15-47.5-30.3-69.3-47.8   c-33-26.5-68.4-33-108-19.6c-0.9,0.3-1.9,0.4-2.8,0.6c-0.3,0-0.6-0.2-2.3-0.9c21.7-27.4,36.8-60.5,74.4-70.9   c22.8-6.3,44.8-4.6,64.3,8.4c49.5,32.8,98.3,66.7,147.4,100.2C383.8,147.4,384.1,148,384.8,148.8z"></path>		<path class="st0" d="M339.2,217.6c-16.8,24.5-32.5,49.1-50,72.2c-27.3,36.1-66.4,44.3-107.8,22.7c-20.2-10.6-38.9-24-57.7-38   c6.5,0.3,13.1,0.7,19.6,0.9c34.2,1,61.3-12.7,82.3-39.5c5.8-7.3,11.9-14.6,18.7-20.8C270.6,191.1,306.3,193.3,339.2,217.6z"></path>		<path class="st0" d="M134.7,265.6c-29.7-0.7-53.4-10.9-68.4-35.4c-15.8-25.8-13.6-52.6-0.5-79.5c13.8-28.3,39.9-33.3,66.7-36.8   c18.3-2.4,36.1,0.1,52.9,11.7c-2.1,3.3-4,6.5-6.1,9.5c-11.6,16.7-23.4,33.3-35,50c-14.1,20.4-16.1,43.1-12.7,66.8   C132.2,256,133.5,260,134.7,265.6z"></path>	</g></g></svg>